<svg width="1075" height="168" viewBox="0 0 1075 168" fill="none" xmlns="http://www.w3.org/2000/svg">
<path d="M55.46 93.94C43.8 91.3 40.5 90.42 40.5 87.12C40.5 84.92 42.26 83.16 45.34 83.16C48.86 83.16 51.94 85.14 54.8 89.32L77.24 68.64C69.76 59.84 57 54.56 44.24 54.56C21.14 54.56 5.3 68.64 5.3 89.1C5.3 107.36 18.06 119.46 40.72 122.98C46.88 124.08 51.5 125.18 51.5 130.02C51.5 133.54 48.42 136.18 44.24 136.18C39.4 136.18 35.66 132.88 36.1 126.94H0.02C-0.64 149.6 18.72 167.2 44.46 167.2C70.2 167.2 85.82 151.36 85.82 128.48C85.82 109.78 75.92 98.34 55.46 93.94Z" fill="black"/>
<path d="M145.66 8.58L107.82 12.54V55.88H85.82V90.64H107.82V165.88H145.66V90.64H177.12V55.88H145.66V8.58Z" fill="black"/>
<path d="M256.56 114.62C256.56 125.4 249.74 131.12 240.94 131.12C232.14 131.12 225.32 125.4 225.32 114.62V55.88H187.48V118.36C187.48 148.94 208.16 167.2 240.94 167.2C273.72 167.2 294.4 148.94 294.4 118.36V55.88H256.56V114.62Z" fill="black"/>
<path d="M389.83 64.02C383.89 58.52 374.65 54.56 362.11 54.56C331.53 54.56 307.55 77.88 307.55 110.88C307.55 143.88 331.53 167.2 362.33 167.2C376.85 167.2 387.19 161.92 392.47 154.88V165.88H427.67V8.58L389.83 12.54V64.02ZM367.83 133.32C355.51 133.32 345.83 124.74 345.83 110.88C345.83 97.02 355.51 88.44 367.83 88.44C380.15 88.44 389.39 97.02 389.39 110.88C389.39 124.74 380.15 133.32 367.83 133.32Z" fill="black"/>
<path d="M467.87 0C455.11 0 444.55 10.34 444.55 23.54C444.55 36.74 455.11 47.08 467.87 47.08C480.63 47.08 491.19 36.74 491.19 23.54C491.19 10.34 480.63 0 467.87 0Z" fill="black"/>
<path d="M486.79 55.88H448.95V165.88H486.79V55.88Z" fill="black"/>
<path d="M558.88 54.56C525.44 54.56 501.68 78.76 501.68 110.88C501.68 143 525.44 167.2 558.88 167.2C592.32 167.2 616.08 143 616.08 110.88C616.08 78.76 592.32 54.56 558.88 54.56ZM558.88 131.12C547.22 131.12 539.52 122.98 539.52 110.88C539.52 98.78 547.22 90.64 558.88 90.64C570.54 90.64 578.24 98.78 578.24 110.88C578.24 122.98 570.54 131.12 558.88 131.12Z" fill="black"/>
<path d="M739.71 8.58L701.87 12.54V55.88H679.87V90.64H701.87V165.88H739.71V90.64H771.17V55.88H739.71V8.58Z" fill="black"/>
<path d="M850.62 114.62C850.62 125.4 843.8 131.12 835 131.12C826.2 131.12 819.38 125.4 819.38 114.62V55.88H781.54V118.36C781.54 148.94 802.22 167.2 835 167.2C867.78 167.2 888.46 148.94 888.46 118.36V55.88H850.62V114.62Z" fill="black"/>
<path d="M907.66 165.88H945.5V8.58L907.66 12.54V165.88Z" fill="black"/>
<path d="M800.45 44.66C812.479 44.66 822.23 34.8103 822.23 22.66C822.23 10.5097 812.479 0.66 800.45 0.66C788.421 0.66 778.67 10.5097 778.67 22.66C778.67 34.8103 788.421 44.66 800.45 44.66Z" fill="black"/>
<path d="M869.54 44.66C881.569 44.66 891.32 34.8103 891.32 22.66C891.32 10.5097 881.569 0.66 869.54 0.66C857.511 0.66 847.76 10.5097 847.76 22.66C847.76 34.8103 857.511 44.66 869.54 44.66Z" fill="black"/>
<path d="M1033.57 114.62C1033.57 125.4 1026.75 131.12 1017.95 131.12C1009.15 131.12 1002.33 125.4 1002.33 114.62V55.88H964.49V118.36C964.49 148.94 985.17 167.2 1017.95 167.2C1050.73 167.2 1071.41 148.94 1071.41 118.36V55.88H1033.57V114.62Z" fill="black"/>
<path d="M983.41 44.66C995.439 44.66 1005.19 34.8103 1005.19 22.66C1005.19 10.5097 995.439 0.66 983.41 0.66C971.381 0.66 961.63 10.5097 961.63 22.66C961.63 34.8103 971.381 44.66 983.41 44.66Z" fill="black"/>
<path d="M1052.5 44.66C1064.53 44.66 1074.28 34.8103 1074.28 22.66C1074.28 10.5097 1064.53 0.66 1052.5 0.66C1040.47 0.66 1030.72 10.5097 1030.72 22.66C1030.72 34.8103 1040.47 44.66 1052.5 44.66Z" fill="black"/>
</svg>
